<svg version="1" xmlns="http://www.w3.org/2000/svg" width="1200" height="1200" viewBox="0 0 900.000000 900.000000"><path d="M0 450v450h900V0H0v450zm665.8-125.8c-.3.7-2.9 8.4-5.8 17l-5.4 15.8h-6.9c-6 0-6.8-.2-6.3-1.8.2-.9 1.9-8.6 3.7-17l3.2-15.2h9c6.7 0 8.8.3 8.5 1.2zm-89.9 3.4c2 2.6 2.1 3.9 2.1 30V385h3.4c7.3 0 8.9-1.3 18.1-15.6l8.7-13.4h10.9c8.5 0 10.9.3 10.3 1.2-4.2 7.2-23 34.1-24.1 34.5-1.1.5-1 1 .6 2.7 1.2 1.2 4.6 6.9 7.6 12.7 3.1 5.7 6.3 11 7.2 11.6.9.7 3.6 1.3 6 1.3h4.4l-.3 8.2-.3 8.3h-10.2c-8.6 0-10.6-.3-12.8-2-1.5-1.1-6-8.3-10.2-16-4.1-7.7-8-14.5-8.6-15.2-.7-.6-3.3-1.5-5.9-1.8l-4.8-.7V437h-20l-.2-47.3-.3-47.2-4.7-.3-4.8-.3V325h12.9c12.8 0 13 0 15 2.6zM705 334v9h-17v-18h17v9zm-570.4 22.5c11.4 3.4 15.4 8.3 15.4 18.7v6.8h-16.9l-.3-3.2c-.5-4.9-4.6-7.3-12.1-7.2-13.8.1-23 9.9-23 24.4 0 22.7 23 32.4 43.5 18.3l5.1-3.5 1.7 2.2c.9 1.2 2.7 4.1 4 6.6l2.4 4.3-2.9 3.1c-4.4 4.6-16.1 9.9-23.9 10.8-25.6 3.1-45.8-10.9-49.7-34.5-2.2-13.3 2-27 11.2-36.4 10.8-11.1 29.2-15.3 45.5-10.4zm79.4-1.4c20 3.2 34.7 18.7 35.8 37.9.6 10-1.1 17.3-5.6 25-13.5 23.1-48.9 27.3-69.3 8.3-17-15.8-16.9-43.9.2-59.7 6.4-6 12.7-9.2 21.4-11.1 7.6-1.7 9.5-1.7 17.5-.4zm234.8 2c12 4.1 21.9 13.8 25.9 25.2 2.7 7.7 2.4 22.4-.6 29.9-2.5 6.4-10.2 15.6-16.2 19.4-13.9 8.7-35.9 8.7-49.7 0-12.9-8.1-20.1-22.7-18.9-38.1.7-8.6 2.7-14.4 7.2-21 10.6-15.6 32.8-22.1 52.3-15.4zm345.7-.2c5.2 2.4 10 7.5 12.1 13.1 1.4 3.6 1.9 8.7 2.2 26 .2 12.7.8 22 1.4 22.7.6.7 2.8 1.3 4.9 1.3h3.9v17h-10.5c-12.1 0-17-1.5-18.5-5.5-.6-1.5-1-12.6-1-24.8 0-12.2-.5-23.9-1-25.9-.6-2-2.3-4.7-3.8-5.9-2.3-1.8-3.7-2-9.4-1.7-9 .5-14.1 3.9-18.3 12.3l-3 6-.3 22.8-.3 22.8-9.7-.3-9.7-.3-.3-31c-.2-23.2-.5-31.1-1.5-31.7-.6-.4-2.9-.8-5-.8h-3.8l.3-8.3.3-8.2 10.2-.3c12.9-.3 16.7 1 18.2 6.4.6 2.1.8 4.9.4 6.3-.5 2.1 0 1.7 2.8-1.9 7-9.1 17.1-13.4 28.9-12.4 3.5.3 8.3 1.3 10.5 2.3zm-250.7 8.3l.3 9.8h-4.3c-10.2 0-17.7 4.9-21.9 14.3-2.1 4.8-2.4 6.8-2.7 26.4l-.4 21.3H495v-31.4c0-34.7.4-32.6-6.6-32.6h-3.5l.3-8.3.3-8.2 9-.3c17-.6 19.5.9 19.5 12l.1 7.3 2.1-4c5.1-9.9 15-16.7 23.8-16.2l3.5.2.3 9.7zm-266.4-6.1c2.1 2.4 6.8 18.5 13.8 46.6 1.3 5.1 2.5 9.3 2.8 9.3.3 0 4.1-13 8.5-28.8l8-28.7 9.1-.3 9-.3 8.4 29.8 8.4 29.8 6.9-27c3.7-14.9 7.6-28.1 8.6-29.5 2.3-3.1 4.7-3.8 14.9-3.9l8.2-.1V372.7l-2.9.6c-3.4.7-2.9-.4-12.1 28.7-3.9 12.4-8 25.3-9.1 28.7l-2.1 6.3H347c-9.4 0-11-.2-11.8-1.8-.5-.9-4.2-13.1-8.3-27-6.6-22.4-7.5-24.9-8.2-22-.5 1.8-3.8 13.2-7.3 25.3-3.6 12.1-6.8 22.8-7 23.7-.5 1.6-1.9 1.8-11.8 1.8h-11.4l-3.2-10.3c-16.3-52.2-16.3-52.1-19.8-53.2l-3.2-.9v-16.8l10.1.4c9.4.3 10.2.5 12.3 2.9zm424.1-1.7c5 2.1 5.5 5.3 5.5 35.2 0 28.7-.3 27.4 6.1 27.4h2.9v17.2l-12.1-.3c-11.8-.4-12.1-.5-14.5-3.2l-2.4-2.8v-27.8c0-20.2-.3-28-1.2-28.9-.7-.7-2.9-1.2-5-1.2H677v-17h10.5c6.9 0 11.8.5 14 1.4zM593.1 486.7c1.1 1.3 1.5 9.7 1.9 41.2l.5 39.6 3.8.3c3.6.3 3.7.4 3.7 4.3v3.9h-5.6c-5.4 0-9.2-1.2-10.6-3.4-.4-.6-.8-18.7-.8-40.2 0-42.7.3-40.4-5.6-40.4-2.1 0-2.4-.5-2.4-3.5V485h6.9c5.2 0 7.2.4 8.2 1.7zm31.5-.3c1.8 1.4 1.9 3.2 2.2 41.5l.3 40.1h7.9v8.2l-7.1-.4c-5.5-.3-7.4-.8-8.5-2.3-1.1-1.5-1.4-9.1-1.4-40.5 0-28.7-.3-38.9-1.2-39.8-.7-.7-2.7-1.2-4.5-1.2-3.1 0-3.3-.2-3.3-3.5V485h6.8c4.3 0 7.5.5 8.8 1.4zm34.2 3.8l-.3 5.3-4.2.3-4.3.3V485h9.1l-.3 5.2zm-254 11.5l.3 9.3H421v7h-16v19.6c0 16.2.3 20.2 1.7 23.1 2.1 4.4 6.6 7.3 11.6 7.3 3.7 0 3.7 0 3.7 4.1v4.1l-6.4-.4c-7.9-.5-13.5-3.9-16.8-10.1-2.2-3.9-2.3-5.6-2.6-26l-.3-21.7h-4.5c-4.4 0-4.4 0-4.4-3.5s0-3.5 4.5-3.5h4.5v-19.1l4.3.3 4.2.3.3 9.2zM156.2 510c4.8 1.4 9.3 5.9 11.1 11.2l1.4 4.3 1.6-3c2-3.8 7.2-8.8 11.6-11 7.6-3.8 20.1-2.8 25.4 2.1 5.8 5.3 6.2 7.2 6.5 29.4.1 11.3.5 21.5.7 22.7.5 1.9 1.2 2.3 4.5 2.3 4 0 4 0 4 4v4h-6.3c-10.7 0-10.4.8-10.9-25.2-.4-23.5-1.1-27.1-5.5-31.1-5-4.4-14.1-3.4-20.7 2.4-8.5 7.5-9.1 9.4-9.4 33.1l-.3 20.8h-8.7l-.4-24.8c-.4-27.8-.9-30.1-7.3-32.8-7.4-3.1-15.6-.6-21.8 6.6-5.9 6.9-6.7 10.8-6.7 32.2V576h-9v-27.8c0-29.9-.1-30.2-5.2-30.2-2.5 0-2.8-.3-2.8-3.5V511h6.3c8.7 0 10.2 1.3 10.1 8.4-.1 5.4 0 5.5 1.4 3.4 7.4-11.2 18.8-16 30.4-12.8zm123.1 1.9c21.5 9.3 27 38.2 10.4 55-6.6 6.8-12.7 9.4-22.7 9.9-11.6.5-18.3-2-26.1-9.7-7-7-9.9-14.1-9.9-24.1 0-15.6 8.9-27.6 24.3-32.6 5.8-1.9 17.9-1.2 24 1.5zm81-1.5c5.1 1.9 7.6 4.2 10.1 9.6 1.8 4 2.1 7.1 2.6 26l.5 21.5 3.8.3c3.6.3 3.7.4 3.7 4.4v4l-7-.4c-3.8-.2-7.5-.9-8.2-1.6-1-.9-1.4-7.7-1.8-24.5-.5-25.3-1.1-27.8-6.6-30.7-3.7-2.1-13.1-1.8-17.4.4-4.8 2.5-9.8 7.3-12.3 12.1-2 3.7-2.2 5.7-2.5 24.2l-.3 20.3H316l-.2-28.8-.3-28.7-3.7-.3c-3.6-.3-3.8-.5-3.8-3.8V511h6.9c6.1 0 7.2.3 8.5 2.2.9 1.2 1.6 4.2 1.6 6.7v4.4l2.9-4c6.8-9.4 21.3-13.8 32.4-9.9zm121.1 1.1c4.7 2.2 9.9 7.3 12.2 11.8 4.8 9.1 5.7 22.4 2.3 33.3-1.7 5.6-3.1 7.7-7.7 12.4-6.4 6.2-10.6 8-19.6 8-7.2 0-12-2-17.3-7.3l-4.3-4.1V602h-8v-40.8c0-30.4-.3-41.1-1.2-42-.7-.7-2.7-1.2-4.5-1.2-3.1 0-3.3-.2-3.3-3.5V511h6.7c8 0 10.3 1.5 10.3 6.9v3.6l3.1-3.8c3-3.6 6.8-6.2 11.9-7.8 4-1.3 15.2-.4 19.4 1.6zm72.2.3c9 4.6 14.4 14.5 14.4 26.4v5.8h-50.3l.7 4.1c1.3 8.3 7.4 16.3 14.8 19.3 7.5 3.2 19.9 1.5 27-3.5 3.2-2.3 3.2-2.3 6 2.5 1.3 2.3-.1 3.6-8.2 7.4-4 2-7.5 2.7-13.2 3-14.5.7-25.2-4.9-31.7-16.8-3.1-5.6-3.6-7.5-3.9-15-.8-16.9 6.7-29.1 21.1-34.2 6.8-2.4 17.5-2 23.3 1zm163.6-1.4c10.7 3.2 17.8 13.5 18.1 26.3l.2 6.8-24.7.3-24.8.2v3.3c0 8 7.8 18.1 15.9 20.6 8.8 2.6 20.7.5 26.4-4.7 1.7-1.6 2-1.5 3.8.8 2.7 3.6 2.4 4.7-1.9 7.4-6 3.7-12.6 5.6-20.2 5.6-13.7 0-25-7.1-30.6-19.2-2.5-5.5-2.8-7.4-2.8-14.8.1-9.3 1.8-15.1 6.1-21.3 7.1-10.2 22-15.1 34.5-11.3zm68.8 4.1v4.5h-3.8c-5.9 0-12.4 4.6-15.6 11.2-3.5 7.2-4.6 14.5-4.6 31.5V576h-8v-27.1c0-16.7-.4-27.8-1-29-.8-1.3-2.1-1.9-4.5-1.9-3.3 0-3.5-.2-3.5-3.5V511h6.9c9 0 10.1 1.1 10.1 9.3v6.2l3-5.2c4.2-7.4 9.9-11.1 17.3-11.2l3.7-.1v4.5zm-128.7-1.7c1.4 1.6 1.7 5.4 1.9 28.3l.3 26.4 4 .5c3.8.5 4 .7 4 4v3.5l-6.1.3c-4.8.2-6.6-.1-8.5-1.7l-2.4-1.9-.5-26.9-.5-26.8-3.7-.3c-3.6-.3-3.8-.5-3.8-3.8V511h6.8c5.4 0 7.3.4 8.5 1.8z"/><path d="M199.8 372.4c-10.7 2.9-17.1 12-17.2 24.1 0 6.1.4 7.8 3 12.5 4.6 8.2 9.7 11.4 18.8 11.8 10.7.6 18.2-3.4 22.9-12.2 3.1-5.8 3.1-18.4 0-24.2-3-5.7-8.3-10-14.5-11.9-6-1.8-6.8-1.8-13-.1zM425.7 372.6c-3.1.9-6.5 3.1-9.2 5.9-9.8 9.7-9.8 26.2-.1 36 5.3 5.3 9.8 6.8 18.6 6.3 11.3-.6 18.7-7.3 21.2-19 3.9-18.8-12.9-34.8-30.5-29.2zM256.6 518.5c-9.6 3.7-15.5 11.5-16.3 21.8-.9 10.9 3.2 19.7 11.8 25.4 5.4 3.5 15.7 4.4 22.4 1.9 5-2 11.7-8.7 14-14.3 2.1-4.8 2.2-15.8.2-20.4-2.1-5-7.3-10.7-12.1-13.1-5.2-2.7-14.8-3.3-20-1.3zM461.5 518.3c-5.7 2.3-8.5 4.9-11.2 10.5-2.4 4.9-2.8 6.9-2.8 14.2 0 7.3.4 9.3 2.8 14.3 6.7 13.5 21.1 16.4 31.3 6.1 10.9-10.9 9.4-35.1-2.7-43.1-4.6-3.1-12.6-4-17.4-2zM534.5 517.3c-2.2.8-5.2 2.1-6.7 3.1-3.3 2.1-7.7 8.7-8.5 12.6l-.5 3h40.5l-.7-4.3c-1.8-11.2-13.1-17.9-24.1-14.4zM703.5 516.9c-4.8 1.2-9 3.8-12 7.3-2.6 3.1-3.4 4.6-4.9 9.5l-.7 2.3H727l-.7-3.3c-1.5-8.1-6.2-13.7-13.1-15.7-4.1-1.1-5.4-1.1-9.7-.1z"/></svg>